<svg id="visual" viewBox="0 0 400 384" width="400" height="384" xmlns="http://www.w3.org/2000/svg" xmlns:xlink="http://www.w3.org/1999/xlink" version="1.1"><rect x="0" y="0" width="400" height="384" fill="#ffffff"></rect><defs><linearGradient id="grad1_0" x1="4%" y1="0%" x2="100%" y2="100%"><stop offset="29.166666666666664%" stop-color="#ffffff" stop-opacity="1"></stop><stop offset="70.83333333333333%" stop-color="#ffffff" stop-opacity="1"></stop></linearGradient></defs><defs><linearGradient id="grad2_0" x1="0%" y1="0%" x2="96%" y2="100%"><stop offset="29.166666666666664%" stop-color="#ffffff" stop-opacity="1"></stop><stop offset="70.83333333333333%" stop-color="#ffffff" stop-opacity="1"></stop></linearGradient></defs><g transform="translate(400, 0)"><path d="M0 249.5C-32.6 246.4 -65.2 243.3 -95.5 230.5C-125.7 217.7 -153.6 195.2 -168.3 168.3C-183 141.3 -184.5 109.9 -195.9 81.1C-207.2 52.3 -228.4 26.2 -249.5 0L0 0Z" fill="#FBAE3C"></path></g><g transform="translate(0, 384)"><path d="M0 -249.5C34.8 -248.3 69.7 -247.2 95.5 -230.5C121.3 -213.9 138.1 -181.8 156.3 -156.3C174.4 -130.8 194 -111.8 209.7 -86.9C225.5 -61.9 237.5 -31 249.5 0L0 0Z" fill="#FBAE3C"></path></g></svg>