<svg id="visual" viewBox="0 0 290 480" width="290" height="480" xmlns="http://www.w3.org/2000/svg" xmlns:xlink="http://www.w3.org/1999/xlink" version="1.1"><rect x="0" y="0" width="290" height="480" fill="#000000"></rect><defs><linearGradient id="grad1_0" x1="0%" y1="0%" x2="100%" y2="100%"><stop offset="30%" stop-color="#000000" stop-opacity="1"></stop><stop offset="70%" stop-color="#000000" stop-opacity="1"></stop></linearGradient></defs><defs><linearGradient id="grad2_0" x1="0%" y1="0%" x2="100%" y2="100%"><stop offset="30%" stop-color="#000000" stop-opacity="1"></stop><stop offset="70%" stop-color="#000000" stop-opacity="1"></stop></linearGradient></defs><g transform="translate(290, 0)"><path d="M0 240.9C-30.4 232.1 -60.8 223.3 -86.9 209.7C-112.9 196.1 -134.5 177.7 -158.4 158.4C-182.3 139 -208.4 118.7 -222.6 92.2C-236.7 65.6 -238.8 32.8 -240.9 0L0 0Z" fill="#0049b6"></path></g><g transform="translate(0, 480)"><path d="M0 -240.9C33.1 -239.5 66.3 -238 92.2 -222.6C118.1 -207.1 136.8 -177.6 152 -152C167.2 -126.4 178.9 -104.7 193.1 -80C207.3 -55.3 224.1 -27.6 240.9 0L0 0Z" fill="#0049b6"></path></g></svg>