<svg id="visual" viewBox="0 0 290 390" width="290" height="390" xmlns="http://www.w3.org/2000/svg" xmlns:xlink="http://www.w3.org/1999/xlink" version="1.1"><rect x="0" y="0" width="290" height="390" fill="#000000"></rect><defs><linearGradient id="grad1_0" x1="0%" y1="0%" x2="100%" y2="100%"><stop offset="30%" stop-color="#000000" stop-opacity="1"></stop><stop offset="70%" stop-color="#000000" stop-opacity="1"></stop></linearGradient></defs><defs><linearGradient id="grad2_0" x1="0%" y1="0%" x2="100%" y2="100%"><stop offset="30%" stop-color="#000000" stop-opacity="1"></stop><stop offset="70%" stop-color="#000000" stop-opacity="1"></stop></linearGradient></defs><g transform="translate(290, 0)"><path d="M0 218.7C-23.1 198.1 -46.2 177.4 -68.1 164.5C-90 151.5 -110.7 146.1 -135.1 135.1C-159.4 124 -187.5 107.2 -202.1 83.7C-216.6 60.2 -217.7 30.1 -218.7 0L0 0Z" fill="#00255c"></path></g><g transform="translate(0, 390)"><path d="M0 -218.7C20.4 -197.4 40.8 -176 70 -169.1C99.3 -162.1 137.4 -169.6 154.6 -154.6C171.9 -139.7 168.3 -102.2 175.5 -72.7C182.7 -43.2 200.7 -21.6 218.7 0L0 0Z" fill="#00255c"></path></g></svg>