<svg id="visual" viewBox="0 0 1920 1500" width="1920" height="1500" xmlns="http://www.w3.org/2000/svg" xmlns:xlink="http://www.w3.org/1999/xlink" version="1.1"><path d="M0 226L29.2 213.5C58.3 201 116.7 176 174.8 178.5C233 181 291 211 349.2 203.5C407.3 196 465.7 151 523.8 131C582 111 640 116 698.2 113.5C756.3 111 814.7 101 872.8 98.5C931 96 989 101 1047.2 111C1105.3 121 1163.7 136 1221.8 148.5C1280 161 1338 171 1396.2 173.5C1454.3 176 1512.7 171 1570.8 156C1629 141 1687 116 1745.2 131C1803.3 146 1861.7 201 1890.8 228.5L1920 256L1920 0L1890.8 0C1861.7 0 1803.3 0 1745.2 0C1687 0 1629 0 1570.8 0C1512.7 0 1454.3 0 1396.2 0C1338 0 1280 0 1221.8 0C1163.7 0 1105.3 0 1047.2 0C989 0 931 0 872.8 0C814.7 0 756.3 0 698.2 0C640 0 582 0 523.8 0C465.7 0 407.3 0 349.2 0C291 0 233 0 174.8 0C116.7 0 58.3 0 29.2 0L0 0Z" fill="#00255c"></path><path d="M0 556L29.2 546C58.3 536 116.7 516 174.8 548.5C233 581 291 666 349.2 668.5C407.3 671 465.7 591 523.8 551C582 511 640 511 698.2 541C756.3 571 814.7 631 872.8 641C931 651 989 611 1047.2 611C1105.3 611 1163.7 651 1221.8 638.5C1280 626 1338 561 1396.2 531C1454.3 501 1512.7 506 1570.8 483.5C1629 461 1687 411 1745.2 448.5C1803.3 486 1861.7 611 1890.8 673.5L1920 736L1920 254L1890.8 226.5C1861.7 199 1803.3 144 1745.2 129C1687 114 1629 139 1570.8 154C1512.7 169 1454.3 174 1396.2 171.5C1338 169 1280 159 1221.8 146.5C1163.7 134 1105.3 119 1047.2 109C989 99 931 94 872.8 96.5C814.7 99 756.3 109 698.2 111.5C640 114 582 109 523.8 129C465.7 149 407.3 194 349.2 201.5C291 209 233 179 174.8 176.5C116.7 174 58.3 199 29.2 211.5L0 224Z" fill="#001d52"></path><path d="M0 826L29.2 836C58.3 846 116.7 866 174.8 876C233 886 291 886 349.2 883.5C407.3 881 465.7 876 523.8 878.5C582 881 640 891 698.2 911C756.3 931 814.7 961 872.8 936C931 911 989 831 1047.2 846C1105.3 861 1163.7 971 1221.8 988.5C1280 1006 1338 931 1396.2 878.5C1454.3 826 1512.7 796 1570.8 781C1629 766 1687 766 1745.2 808.5C1803.3 851 1861.7 936 1890.8 978.5L1920 1021L1920 734L1890.8 671.5C1861.7 609 1803.3 484 1745.2 446.5C1687 409 1629 459 1570.8 481.5C1512.7 504 1454.3 499 1396.2 529C1338 559 1280 624 1221.8 636.5C1163.7 649 1105.3 609 1047.2 609C989 609 931 649 872.8 639C814.7 629 756.3 569 698.2 539C640 509 582 509 523.8 549C465.7 589 407.3 669 349.2 666.5C291 664 233 579 174.8 546.5C116.7 514 58.3 534 29.2 544L0 554Z" fill="#001549"></path><path d="M0 1366L29.2 1358.5C58.3 1351 116.7 1336 174.8 1328.5C233 1321 291 1321 349.2 1301C407.3 1281 465.7 1241 523.8 1248.5C582 1256 640 1311 698.2 1313.5C756.3 1316 814.7 1266 872.8 1263.5C931 1261 989 1306 1047.2 1328.5C1105.3 1351 1163.7 1351 1221.8 1333.5C1280 1316 1338 1281 1396.2 1263.5C1454.3 1246 1512.7 1246 1570.8 1248.5C1629 1251 1687 1256 1745.2 1253.5C1803.3 1251 1861.7 1241 1890.8 1236L1920 1231L1920 1019L1890.8 976.5C1861.7 934 1803.3 849 1745.2 806.5C1687 764 1629 764 1570.8 779C1512.7 794 1454.3 824 1396.2 876.5C1338 929 1280 1004 1221.8 986.5C1163.7 969 1105.3 859 1047.2 844C989 829 931 909 872.8 934C814.7 959 756.3 929 698.2 909C640 889 582 879 523.8 876.5C465.7 874 407.3 879 349.2 881.5C291 884 233 884 174.8 874C116.7 864 58.3 844 29.2 834L0 824Z" fill="#000a3e"></path><path d="M0 1501L29.2 1501C58.3 1501 116.7 1501 174.8 1501C233 1501 291 1501 349.2 1501C407.3 1501 465.7 1501 523.8 1501C582 1501 640 1501 698.2 1501C756.3 1501 814.7 1501 872.8 1501C931 1501 989 1501 1047.2 1501C1105.3 1501 1163.7 1501 1221.8 1501C1280 1501 1338 1501 1396.2 1501C1454.3 1501 1512.7 1501 1570.8 1501C1629 1501 1687 1501 1745.2 1501C1803.3 1501 1861.7 1501 1890.8 1501L1920 1501L1920 1229L1890.8 1234C1861.7 1239 1803.3 1249 1745.2 1251.5C1687 1254 1629 1249 1570.8 1246.5C1512.7 1244 1454.3 1244 1396.2 1261.5C1338 1279 1280 1314 1221.8 1331.5C1163.7 1349 1105.3 1349 1047.2 1326.5C989 1304 931 1259 872.8 1261.5C814.7 1264 756.3 1314 698.2 1311.5C640 1309 582 1254 523.8 1246.5C465.7 1239 407.3 1279 349.2 1299C291 1319 233 1319 174.8 1326.5C116.7 1334 58.3 1349 29.2 1356.5L0 1364Z" fill="#000000"></path></svg>